<?xml version="1.0" encoding="UTF-8"?>
<!-- Generator: Adobe Illustrator 16.0.0, SVG Export Plug-In . SVG Version: 6.00 Build 0)  -->
<!DOCTYPE svg PUBLIC "-//W3C//DTD SVG 1.1//EN" "http://www.w3.org/Graphics/SVG/1.1/DTD/svg11.dtd">
<svg version="1.1" id="Layer_1" xmlns="http://www.w3.org/2000/svg" xmlns:xlink="http://www.w3.org/1999/xlink" x="0px" y="0px" width="127px" height="36px" viewBox="36.5 10.5 127 36" enable-background="new 36.5 10.5 127 36" xml:space="preserve">
<g>
	<path fill="#41A528" d="M72.299,40.547c0,3.157-2.559,5.715-5.715,5.715H42.252c-3.157,0-5.716-2.558-5.716-5.715V16.215   c0-3.157,2.559-5.715,5.716-5.715h24.332c3.156,0,5.715,2.559,5.715,5.715V40.547z"/>
	<g>
		<path fill="#4B4B4B" d="M84.884,39.356c-3.478,0-6.867-2.492-6.867-8.143s3.39-8.114,6.867-8.114c1.709,0,3.043,0.435,3.999,1.073    l-1.043,2.288c-0.638-0.462-1.595-0.752-2.55-0.752c-2.086,0-4,1.651-4,5.476c0,3.826,1.971,5.507,4,5.507    c0.956,0,1.912-0.289,2.55-0.755l1.043,2.349C87.897,38.952,86.593,39.356,84.884,39.356z"/>
		<path fill="#4B4B4B" d="M101.172,39.037V28.663c0-2-1.279-2.985-3.364-2.985c-0.957,0-2.028,0.29-2.783,0.725v12.634h-3.159    V16.291h3.159v7.708c0.957-0.464,2.261-0.841,3.506-0.841c3.655,0,5.829,1.855,5.829,5.245v10.635H101.172z"/>
		<path fill="#4B4B4B" d="M115.458,25.853c-0.463-0.116-1.014-0.174-1.594-0.174c-0.898,0-1.854,0.146-2.464,0.406v12.952h-3.158    V24.201c1.507-0.637,3.739-1.101,6.057-1.101c0.695,0,1.304,0.029,1.767,0.116L115.458,25.853z"/>
		<path fill="#4B4B4B" d="M123.839,39.356c-4.433,0-6.866-3.506-6.866-8.143s2.434-8.114,6.866-8.114    c4.435,0,6.868,3.477,6.868,8.114C130.708,35.851,128.273,39.356,123.839,39.356z M123.839,25.621c-2.463,0-3.68,2.202-3.68,5.563    c0,3.362,1.217,5.594,3.68,5.594c2.464,0,3.682-2.231,3.682-5.594C127.521,27.823,126.303,25.621,123.839,25.621z"/>
		<path fill="#4B4B4B" d="M143.313,39.037V28.606c0-1.826-1.103-2.956-3.275-2.956c-1.159,0-2.23,0.203-2.869,0.463v12.923h-3.158    V24.201c1.564-0.637,3.564-1.101,5.997-1.101c4.376,0,6.493,1.913,6.493,5.216v10.721H143.313L143.313,39.037z"/>
		<path fill="#4B4B4B" d="M156.672,39.356c-4.434,0-6.867-3.506-6.867-8.143s2.434-8.114,6.867-8.114s6.867,3.477,6.867,8.114    S161.105,39.356,156.672,39.356z M156.672,25.621c-2.463,0-3.68,2.202-3.68,5.563c0,3.362,1.217,5.594,3.68,5.594    s3.68-2.231,3.68-5.594C160.352,27.823,159.135,25.621,156.672,25.621z"/>
	</g>
	<g>
		<path fill="#FFFFFF" d="M50.309,39.549c-4.895,0-7.662-3.059-7.662-8.041c0-4.807,2.564-8.128,7.313-8.128    c0.961,0,2.01,0.204,2.534,0.379v-7.4h3.204v22.083C54.649,39.024,52.523,39.549,50.309,39.549z M52.494,26.176    c-0.408-0.174-1.398-0.349-2.243-0.349c-2.884,0-4.399,2.389-4.399,5.681c0,3.438,1.544,5.506,4.399,5.506    c0.845,0,1.865-0.203,2.243-0.407V26.176z"/>
		<path fill="#FFFFFF" d="M66.857,25.973c-0.465-0.117-1.02-0.175-1.602-0.175c-0.904,0-1.865,0.146-2.476,0.408v13.024h-3.175    V24.312c1.514-0.641,3.758-1.107,6.088-1.107c0.7,0,1.311,0.028,1.777,0.116L66.857,25.973z"/>
	</g>
</g>
</svg>